<?xml version="1.0" standalone="no"?>
<!DOCTYPE svg PUBLIC "-//W3C//DTD SVG 20010904//EN"
 "http://www.w3.org/TR/2001/REC-SVG-20010904/DTD/svg10.dtd">
<svg version="1.0" xmlns="http://www.w3.org/2000/svg"
 width="700.000000pt" height="700.000000pt" viewBox="0 0 700.000000 700.000000"
 preserveAspectRatio="xMidYMid meet">
<metadata>
Created by potrace 1.11, written by Peter Selinger 2001-2013
</metadata>
<g transform="translate(0.000000,700.000000) scale(0.100000,-0.100000)"
fill="#000000" stroke="none">
<path d="M3260 6353 c-210 -415 -203 -403 -233 -403 -13 0 -70 33 -128 73
-215 147 -413 284 -534 369 -120 84 -130 86 -95 23 9 -16 43 -79 75 -140 32
-60 65 -123 75 -140 41 -70 150 -285 150 -294 0 -6 -6 -11 -14 -11 -24 0 -201
-70 -341 -136 -49 -22 -110 -30 -310 -39 -131 -6 -300 -16 -302 -19 -4 -4 281
-96 295 -96 24 0 11 -16 -36 -45 -198 -125 -517 -415 -664 -605 -156 -201
-285 -423 -371 -635 -40 -98 -101 -278 -111 -331 -3 -10 -9 -39 -15 -64 -5
-25 -12 -58 -15 -75 -3 -16 -8 -41 -11 -55 -31 -153 -41 -528 -20 -700 32
-256 94 -492 176 -677 10 -24 19 -45 19 -49 0 -10 100 -206 137 -269 57 -95
152 -236 198 -292 6 -7 15 -18 20 -25 38 -51 155 -178 235 -256 480 -471 1152
-773 1845 -829 184 -15 573 -8 670 12 11 2 40 7 65 10 45 5 54 7 145 25 28 5
73 15 100 20 97 19 312 87 449 141 267 106 532 260 761 441 114 90 336 312
428 428 161 201 283 409 392 665 57 134 126 386 151 552 3 21 7 49 10 63 17
104 23 375 10 535 -6 76 -28 213 -51 330 -49 243 -203 609 -342 813 -24 35
-43 65 -43 68 0 5 -79 113 -90 124 -3 3 -31 38 -64 78 -54 69 -211 231 -301
313 -197 177 -550 398 -800 501 -58 23 -208 80 -220 82 -5 2 -48 14 -95 29
-47 15 -116 33 -155 42 -38 9 -76 18 -82 20 -8 3 16 31 55 67 37 35 100 93
141 131 40 37 70 67 67 67 -7 0 -214 -69 -241 -80 -11 -5 -101 -35 -200 -69
-173 -58 -183 -60 -255 -55 -41 3 -121 7 -178 7 -81 2 -103 5 -106 17 -5 14
-14 108 -21 201 -1 24 -6 76 -9 114 -13 128 -27 297 -30 342 -1 12 -4 24 -7
27 -2 3 -83 -151 -179 -341z"/>
</g>
</svg>
